<svg width="40" height="40" viewBox="0 0 40 40" fill="none" xmlns="http://www.w3.org/2000/svg">
<g id="Group">
<path id="Vector" d="M23.7499 24.9668C23.4184 24.9668 23.1005 24.8351 22.866 24.6007C22.6316 24.3663 22.4999 24.0483 22.4999 23.7168V20.3835C22.4999 20.052 22.6316 19.734 22.866 19.4996C23.1005 19.2652 23.4184 19.1335 23.7499 19.1335C24.0814 19.1335 24.3994 19.2652 24.6338 19.4996C24.8682 19.734 24.9999 20.052 24.9999 20.3835V23.7168C24.9999 24.0483 24.8682 24.3663 24.6338 24.6007C24.3994 24.8351 24.0814 24.9668 23.7499 24.9668ZM16.25 24.9668C15.9185 24.9668 15.6005 24.8351 15.3661 24.6007C15.1317 24.3663 15 24.0483 15 23.7168V20.3835C15 20.052 15.1317 19.734 15.3661 19.4996C15.6005 19.2652 15.9185 19.1335 16.25 19.1335C16.5815 19.1335 16.8994 19.2652 17.1339 19.4996C17.3683 19.734 17.5 20.052 17.5 20.3835V23.7168C17.5 24.0483 17.3683 24.3663 17.1339 24.6007C16.8994 24.8351 16.5815 24.9668 16.25 24.9668Z" fill="#FF9800"/>
<path id="Vector_2" d="M16.25 19.1335C15.9185 19.1335 15.6005 19.2652 15.3661 19.4996C15.1317 19.734 15 20.052 15 20.3835V23.7168C15 24.4068 15.56 24.9668 16.25 24.9668V19.1335ZM23.7499 19.1335C23.4184 19.1335 23.1005 19.2652 22.866 19.4996C22.6316 19.734 22.4999 20.052 22.4999 20.3835V23.7168C22.4999 24.4068 23.0599 24.9668 23.7499 24.9668V19.1335Z" fill="#DE8400"/>
<path id="Vector_3" d="M36.6662 9.58359V27.9167H25.583C26.2245 27.6329 26.7925 27.2059 27.2435 26.6686C27.6945 26.1313 28.0164 25.4978 28.1846 24.8168C30.1846 24.3168 31.6679 22.5335 31.6679 20.3835V18.8502C31.6679 16.7335 30.8513 14.7502 29.3513 13.2502L28.333 12.2336V9.58359H36.6662Z" fill="#FAFAFA"/>
<path id="Vector_4" d="M26.4231 38.5767C24.2348 36.3883 24.1681 34.2667 24.1665 34.1617C24.1652 33.9416 24.0768 33.7309 23.9206 33.5757C23.7645 33.4205 23.5533 33.3334 23.3331 33.3334H16.6332C16.1732 33.3334 15.7999 33.7117 15.7999 34.1717C15.7999 34.2617 15.7699 36.385 13.5766 38.5783C13.4595 38.6946 13.3797 38.8432 13.3472 39.005C13.3148 39.1668 13.3313 39.3347 13.3946 39.4871C13.4578 39.6395 13.565 39.7697 13.7025 39.8611C13.84 39.9524 14.0015 40.0007 14.1666 40H25.8331C25.9982 40.0003 26.1596 39.9516 26.2969 39.86C26.4342 39.7685 26.5412 39.6382 26.6044 39.4858C26.6676 39.3333 26.6841 39.1655 26.6518 39.0037C26.6196 38.8418 26.54 38.6932 26.4231 38.5767Z" fill="#90A4AE"/>
<path id="Vector_5" d="M39.9996 9.58363V32.0834C39.9996 33.6834 38.6829 35 37.083 35H2.91664C1.31665 35 0 33.6834 0 32.0834V9.58363C0 7.98365 1.31665 6.66699 2.91664 6.66699H11.9332C11.7499 7.50032 11.6665 8.36698 11.6665 9.23363V9.58363H3.3333V27.9168H14.4165C14.9891 28.1683 15.6077 28.2982 16.2332 28.2982C16.8586 28.2982 17.4772 28.1683 18.0498 27.9168H21.9498C22.5224 28.1683 23.141 28.2982 23.7664 28.2982C24.3919 28.2982 25.0105 28.1683 25.5831 27.9168H36.6663V9.58363H28.333V9.23363C28.333 8.36698 28.2497 7.50032 28.0664 6.66699H37.083C38.6829 6.66699 39.9996 7.98365 39.9996 9.58363Z" fill="#607D8B"/>
<path id="Vector_6" d="M14.4167 27.9167H3.3335V9.58359H11.6667V12.2336L10.6501 13.2502C9.1501 14.7502 8.33345 16.7335 8.33345 18.8502V20.3835C8.33345 22.5335 9.81676 24.3168 11.8167 24.8168C12.1667 26.2168 13.1334 27.3501 14.4167 27.9167ZM21.95 27.9167H18.05C18.8333 27.5834 19.5167 27.0334 20 26.3334C20.4833 27.0334 21.1667 27.5834 21.95 27.9167Z" fill="#FAFAFA"/>
<path id="Vector_7" d="M27.083 21.6335H12.9165C12.585 21.6335 12.267 21.5018 12.0326 21.2674C11.7982 21.033 11.6665 20.715 11.6665 20.3835V18.8502C11.6665 17.6252 12.1432 16.4735 13.0098 15.6086L14.9998 13.6169V9.23862C14.9975 7.28907 15.5919 5.3855 16.7031 3.78367L18.9731 0.507038C19.4381 -0.167955 20.5614 -0.167955 21.0264 0.507038L23.2947 3.78367C24.4079 5.38464 25.003 7.28866 24.9997 9.23862V13.6169L26.9897 15.6069C27.8563 16.4735 28.333 17.6235 28.333 18.8502V20.3852C28.3326 20.7164 28.2007 21.0339 27.9663 21.268C27.7319 21.502 27.4142 21.6335 27.083 21.6335Z" fill="#ECEFF1"/>
<path id="Vector_8" d="M19.9996 35H15.6813C15.4846 35.835 14.963 37.1917 13.5763 38.5767C13.4586 38.6929 13.3783 38.8416 13.3456 39.0037C13.3128 39.1658 13.3292 39.334 13.3925 39.4868C13.4558 39.6396 13.5633 39.77 13.7011 39.8614C13.839 39.9528 14.0009 40.0011 14.1663 40H19.9996V35Z" fill="#7D8F97"/>
<path id="Vector_9" d="M11.9332 6.66699H2.91664C1.31665 6.66699 0 7.98365 0 9.58363V32.0834C0 33.6834 1.31665 35 2.91664 35H19.9998V27.9168H18.0498C17.4772 28.1683 16.8586 28.2982 16.2332 28.2982C15.6077 28.2982 14.9891 28.1683 14.4165 27.9168H3.3333V9.58363H11.6665V9.23363C11.6665 8.36698 11.7499 7.50032 11.9332 6.66699Z" fill="#546D79"/>
<path id="Vector_10" d="M11.6667 9.58359H3.3335V27.9167H14.4167C13.7756 27.6326 13.208 27.2055 12.7573 26.6682C12.3067 26.1309 11.9849 25.4976 11.8167 24.8168C9.81676 24.3168 8.33345 22.5335 8.33345 20.3835V18.8502C8.33345 16.7335 9.1501 14.7502 10.6501 13.2502L11.6667 12.2336V9.58359ZM20 26.3334C19.5167 27.0334 18.8333 27.5834 18.05 27.9167H20V26.3334Z" fill="#DADADA"/>
<path id="Vector_11" d="M19.9998 0.000382932C19.8004 -0.00458913 19.6028 0.0389215 19.424 0.127175C19.2451 0.215429 19.0904 0.345787 18.9731 0.507044L16.7015 3.78368C15.5915 5.38603 14.9977 7.28936 14.9998 9.23862V13.6169L13.0098 15.6069C12.1432 16.4736 11.6665 17.6235 11.6665 18.8502V20.3852C11.6665 21.0752 12.2265 21.6352 12.9165 21.6352H19.9998V0.000382932Z" fill="#CDD0D2"/>
</g>
</svg>
