<svg width="48" height="40" viewBox="0 0 48 40" fill="none" xmlns="http://www.w3.org/2000/svg">
<g id="Group">
<path id="Vector" d="M42.449 1.63265V13.0612H34.2857C33.8531 13.0625 33.4386 13.2349 33.1327 13.5408C32.8268 13.8467 32.6544 14.2613 32.6531 14.6939V26.1224H0V1.63265C0.00129202 1.20004 0.173718 0.785523 0.47962 0.47962C0.785523 0.173718 1.20004 0.00129202 1.63265 0H40.8163C41.2489 0.00129202 41.6635 0.173718 41.9694 0.47962C42.2753 0.785523 42.4477 1.20004 42.449 1.63265Z" fill="#026EAA"/>
<path id="Vector_2" d="M33.1673 0L7.0449 26.1224H0V1.63265C0.00129202 1.20004 0.173718 0.785523 0.47962 0.47962C0.785523 0.173718 1.20004 0.00129202 1.63265 0H33.1673Z" fill="#0C84C1"/>
<path id="Vector_3" d="M32.6532 17.9592H47.347V34.2857H32.6532V17.9592ZM31.0205 19.5919H32.6532V31.0204H31.0205V19.5919Z" fill="#026EAA"/>
<path id="Vector_4" d="M47.0528 17.9592L32.6528 32.3592V17.9592H47.0528Z" fill="#0C84C1"/>
<path id="Vector_5" d="M26.9388 39.1837H15.5103L16.6531 33.4694L17.1429 31.0204H25.3062L25.796 33.4694L26.9388 39.1837Z" fill="#C4C4C4"/>
<path id="Vector_6" d="M29.3878 40H13.0612C12.8447 40 12.6371 39.914 12.484 39.7609C12.3309 39.6078 12.2449 39.4002 12.2449 39.1837C12.2449 38.9672 12.3309 38.7595 12.484 38.6064C12.6371 38.4533 12.8447 38.3673 13.0612 38.3673H29.3878C29.6043 38.3673 29.8119 38.4533 29.965 38.6064C30.1181 38.7595 30.2041 38.9672 30.2041 39.1837C30.2041 39.4002 30.1181 39.6078 29.965 39.7609C29.8119 39.914 29.6043 40 29.3878 40ZM12.2449 31.0204H32.6531V26.1224H0V29.3877C0 29.8207 0.172011 30.236 0.478193 30.5422C0.784375 30.8484 1.19965 31.0204 1.63265 31.0204H12.2449ZM32.6531 34.2857H47.3469V37.551C47.3469 37.984 47.1749 38.3993 46.8687 38.7055C46.5626 39.0117 46.1473 39.1837 45.7143 39.1837H34.2857C33.8527 39.1837 33.4374 39.0117 33.1313 38.7055C32.8251 38.3993 32.6531 37.984 32.6531 37.551V34.2857Z" fill="#CCCCCC"/>
<path id="Vector_7" d="M39.1836 35.9184H40.8162V37.551H39.1836V35.9184Z" fill="#F2F2F2"/>
<path id="Vector_8" d="M2.44873 2.44901H4.08138V4.08166H2.44873V2.44901Z" fill="#C1272D"/>
<path id="Vector_9" d="M5.71436 2.44901H7.34701V4.08166H5.71436V2.44901Z" fill="#F15A24"/>
<path id="Vector_10" d="M8.97949 2.44901H10.6121V4.08166H8.97949V2.44901Z" fill="#009245"/>
<path id="Vector_11" d="M3.26514 9.7959H13.0611V16.3265H3.26514V9.7959ZM16.3264 9.7959H26.1223V16.3265H16.3264V9.7959ZM39.1835 9.7959V13.0612H34.2855C33.8529 13.0625 33.4384 13.2349 33.1325 13.5408C32.8266 13.8467 32.6542 14.2612 32.6529 14.6939V16.3265H29.3876V9.7959H39.1835Z" fill="#61C9F2"/>
<g id="Group_2">
<path id="Vector_12" d="M6.53036 5.71429H13.8773V7.34695H6.53036V5.71429ZM15.51 5.71429H26.9385V7.34695H15.51V5.71429ZM28.5712 5.71429H39.9998V7.34695H28.5712V5.71429ZM2.44873 5.71429H4.89771V7.34695H2.44873V5.71429ZM2.44873 18.7755H8.16302V20.4082H2.44873V18.7755ZM24.4895 22.0408H30.2038V23.6735H24.4895V22.0408ZM9.79567 18.7755H30.2038V20.4082H9.79567V18.7755ZM2.44873 22.0408H22.8569V23.6735H2.44873V22.0408Z" fill="#023B5B"/>
</g>
<path id="Vector_13" d="M34.2855 13.0612H45.7141C46.1471 13.0612 46.5623 13.2332 46.8685 13.5394C47.1747 13.8456 47.3467 14.2609 47.3467 14.6939V17.9592H32.6528V14.6939C32.6528 14.2609 32.8248 13.8456 33.131 13.5394C33.4372 13.2332 33.8525 13.0612 34.2855 13.0612Z" fill="#CCCCCC"/>
<path id="Vector_14" d="M35.9185 21.2245H44.0817V26.1224H35.9185V21.2245Z" fill="#61C9F2"/>
<path id="Vector_15" d="M35.1021 29.3878H44.898V31.0204H35.1021V29.3878Z" fill="#023B5B"/>
<path id="Vector_16" d="M25.7957 33.4694H16.6528L17.1426 31.0204H25.3059L25.7957 33.4694Z" fill="#B2B2B2"/>
<path id="Vector_17" d="M31.0205 19.5918H32.6532V31.0204H31.0205V19.5918ZM32.6532 14.6939V19.5918H31.0205V16.3265C31.0218 15.8939 31.1942 15.4794 31.5001 15.1735C31.806 14.8676 32.2206 14.6952 32.6532 14.6939Z" fill="#02708E"/>
<path id="Vector_18" d="M3.26514 9.7959H13.0611V13.0612H3.26514V9.7959ZM16.3264 9.7959H26.1223V13.0612H16.3264V9.7959ZM35.9182 21.2245H44.0815V23.6734H35.9182V21.2245ZM29.3876 9.7959H39.1835V13.0612H29.3876V9.7959Z" fill="#7CDAF7"/>
</g>
</svg>
