<svg width="31" height="40" viewBox="0 0 31 40" fill="none" xmlns="http://www.w3.org/2000/svg">
<g id="Icon">
<path id="Vector" d="M19.1703 7.86462C21.1431 9.98517 21.1682 9.94454 21.1686 10.2088V7.63048C21.1686 7.56341 21.1818 7.497 21.2074 7.43504C21.2331 7.37308 21.2707 7.31678 21.3181 7.26936C21.3656 7.22193 21.4219 7.18432 21.4838 7.15865C21.5458 7.13299 21.6122 7.11978 21.6793 7.11978H22.5842C22.8067 7.11978 22.994 7.26298 23.064 7.46157C22.7274 3.61431 19.4995 0.595947 15.5648 0.595947H14.9904C11.0558 0.595947 7.82793 3.61423 7.49121 7.46149C7.56121 7.26298 7.74855 7.11978 7.97105 7.11978H8.87598C9.01142 7.11978 9.14132 7.17358 9.2371 7.26936C9.33287 7.36513 9.38668 7.49503 9.38668 7.63048V10.6053C9.38668 10.2922 9.6541 10.0449 9.96402 10.0684C13.02 10.288 16.1301 9.31688 18.4816 7.78071C18.5879 7.71125 18.7152 7.68157 18.8413 7.69692C18.9673 7.71227 19.0838 7.77167 19.1703 7.86462Z" fill="#576574"/>
<path id="Vector_2" d="M9.77902 8.10509C9.77902 4.25118 12.6822 1.07603 16.421 0.646104C16.1368 0.613266 15.8509 0.59652 15.5648 0.595947H14.9904C11.0558 0.595947 7.82793 3.61431 7.49121 7.46149C7.56121 7.2629 7.74856 7.1197 7.97106 7.1197H8.87598C9.01142 7.1197 9.14132 7.1735 9.2371 7.26928C9.33287 7.36505 9.38668 7.49495 9.38668 7.6304V10.6052C9.38668 10.357 9.55496 10.1508 9.77902 10.0874V8.10509Z" fill="#3E4B5A"/>
<path id="Vector_3" d="M15.2944 20.7012C14.0162 20.7012 12.8929 20.3502 11.9741 19.7632V22.8684L15.2802 26.9492L18.5862 22.8684V19.6756C17.6497 20.3217 16.5157 20.7012 15.2944 20.7012Z" fill="#FFBEAB"/>
<path id="Vector_4" d="M14.0915 20.5918C13.3033 20.4456 12.5922 20.1581 11.9741 19.7632V22.8684L14.0915 25.4818V20.5918Z" fill="#F7AF9F"/>
<path id="Vector_5" d="M27.3298 26.0459L18.5838 22.6588L15.2778 26.7396L11.9717 22.6588L3.23484 26.0459C3.23484 26.0459 4.05676e-09 27.3757 4.05676e-09 31.0634V39.2475C-1.02574e-05 39.3463 0.0194465 39.4442 0.0572595 39.5355C0.0950725 39.6268 0.150501 39.7097 0.220379 39.7796C0.290257 39.8495 0.373217 39.9049 0.464519 39.9427C0.555821 39.9806 0.653677 40 0.7525 40H29.8188C30.0166 40 30.2063 39.9214 30.3462 39.7815C30.4861 39.6416 30.5647 39.4519 30.5647 39.2541V31.0634C30.5647 27.3757 27.3298 26.0459 27.3298 26.0459Z" fill="#54A0FF"/>
<path id="Vector_6" d="M2.11971 39.2475V30.1105C2.11971 27.5805 3.64228 26.1605 4.59822 25.5182L3.23729 26.0458C3.23729 26.0458 0.00244141 27.3757 0.00244141 31.0633V39.2475C0.00244141 39.663 0.339394 40 0.754941 40H2.87229C2.45658 40 2.11971 39.6631 2.11971 39.2475Z" fill="#338DEF"/>
<path id="Vector_7" d="M19.1067 7.62814C19.0201 7.5351 18.9035 7.47564 18.7774 7.46026C18.6512 7.44488 18.5237 7.47457 18.4174 7.54408C16.0636 9.08173 12.9504 10.0538 9.89137 9.83408C9.58113 9.81056 9.31348 10.0581 9.31348 10.3716V15.0983C9.31348 18.1362 11.6938 20.9108 15.2943 20.9108C18.4994 20.9108 21.107 18.3033 21.107 15.0983V9.99001C21.1069 9.70759 21.1191 9.79126 19.1067 7.62814Z" fill="#FFCDBF"/>
<path id="Vector_8" d="M11.4307 15.0983V9.84631C10.9186 9.8735 10.4043 9.87092 9.89137 9.83413C9.58113 9.81061 9.31348 10.0582 9.31348 10.3716V15.0983C9.31348 18.1362 11.6938 20.9108 15.2943 20.9108C15.6265 20.9108 15.9518 20.8813 16.2689 20.8276C13.5263 20.3623 11.4307 17.9711 11.4307 15.0983Z" fill="#FFBEAB"/>
<path id="Vector_9" d="M19.2721 28.8364L21.7443 23.8817L18.5863 22.6587L15.2803 26.7395L18.5036 29.0287C18.7644 29.2141 19.1291 29.1228 19.2721 28.8364Z" fill="#338DEF"/>
<path id="Vector_10" d="M11.293 28.8364L8.8208 23.8817L11.9788 22.6587L15.2848 26.7395L12.0615 29.0287C11.8006 29.2141 11.4359 29.1228 11.293 28.8364Z" fill="#338DEF"/>
<path id="Vector_11" d="M15.2843 26.7423V26.7395L15.2824 26.7409L15.2804 26.7395V26.7423L12.936 28.4073L14.0442 30.0752H16.5206L17.6287 28.4073L15.2843 26.7423Z" fill="#FF6B6B"/>
<path id="Vector_12" d="M12.3643 40H18.2004L16.5205 30.0752H14.0441L12.3643 40Z" fill="#FC8686"/>
<path id="Vector_13" d="M16.4556 27.5741L15.2844 26.7423V26.7395L15.2824 26.7409L15.2804 26.7395V26.7423L12.936 28.4073L14.0442 30.0752H16.3906L15.4806 28.7057C15.4275 28.6257 15.4076 28.5282 15.4251 28.4338C15.4426 28.3394 15.4962 28.2555 15.5745 28.1998L16.4556 27.5741Z" fill="#EE5253"/>
<path id="Vector_14" d="M14.0441 30.0752L12.3643 40H14.7107L16.3904 30.0752H14.0441Z" fill="#FF6B6B"/>
<path id="Vector_15" d="M25.6538 40V32.3319C25.6538 32.1738 25.591 32.0222 25.4792 31.9105C25.3675 31.7987 25.2159 31.7359 25.0578 31.7359C24.8998 31.7359 24.7482 31.7987 24.6364 31.9105C24.5247 32.0222 24.4619 32.1738 24.4619 32.3319V40H25.6538ZM6.10252 40V32.3319C6.10252 32.1738 6.03973 32.0222 5.92797 31.9105C5.81621 31.7987 5.66463 31.7359 5.50658 31.7359C5.34853 31.7359 5.19695 31.7987 5.08519 31.9105C4.97343 32.0222 4.91064 32.1738 4.91064 32.3319V40H6.10252Z" fill="#338DEF"/>
<path id="Vector_16" d="M21.5203 18.449H16.2639C16.1059 18.449 15.9543 18.3862 15.8425 18.2744C15.7308 18.1627 15.668 18.0111 15.668 17.853C15.668 17.695 15.7308 17.5434 15.8425 17.4317C15.9543 17.3199 16.1059 17.2571 16.2639 17.2571H21.5203C22.3685 17.2571 23.0586 16.567 23.0586 15.7188V13.0002C23.0586 12.8422 23.1214 12.6906 23.2331 12.5788C23.3449 12.4671 23.4965 12.4043 23.6545 12.4043C23.8126 12.4043 23.9642 12.4671 24.0759 12.5788C24.1877 12.6906 24.2505 12.8422 24.2505 13.0002V15.7188C24.2505 17.2242 23.0257 18.449 21.5203 18.449Z" fill="#3E4B5A"/>
<path id="Vector_17" d="M23.0644 8.77867C22.9064 8.77867 22.7548 8.71589 22.643 8.60413C22.5313 8.49237 22.4685 8.34079 22.4685 8.18274V7.48813C22.1461 3.95539 19.1188 1.19188 15.5651 1.19188H14.9907C11.4371 1.19188 8.40988 3.95539 8.08738 7.48813V8.18281C8.08738 8.34087 8.0246 8.49244 7.91284 8.60421C7.80108 8.71597 7.6495 8.77875 7.49145 8.77875C7.33339 8.77875 7.18181 8.71597 7.07005 8.60421C6.95829 8.49244 6.89551 8.34087 6.89551 8.18281V7.46156C6.89551 7.44422 6.89629 7.42688 6.89777 7.40961C7.07426 5.39289 7.99418 3.52422 9.48801 2.14781C10.9913 0.762734 12.9455 0 14.9908 0H15.5652C17.6105 0 19.5647 0.762734 21.0679 2.14773C22.5618 3.52414 23.4817 5.39281 23.6582 7.40953C23.6597 7.4268 23.6604 7.44414 23.6604 7.46149V8.18266C23.6604 8.34072 23.5976 8.49231 23.4858 8.60408C23.3741 8.71585 23.2225 8.77865 23.0644 8.77867Z" fill="#E4EAF8"/>
<path id="Vector_18" d="M26.1227 10.8176C26.1227 9.1454 24.7502 7.78986 23.0571 7.78986V13.8453C24.7502 13.8453 26.1227 12.4898 26.1227 10.8176ZM4.43262 10.8176C4.43262 9.1454 5.78816 7.78986 7.46035 7.78986V13.8453C5.78824 13.8453 4.43262 12.4898 4.43262 10.8176Z" fill="#E4EAF8"/>
<path id="Vector_19" d="M24.6463 8.22795C24.1828 7.94999 23.6389 7.78991 23.0571 7.78991V13.8454C23.6389 13.8454 24.1828 13.6853 24.6463 13.4073V8.22795ZM6.02176 10.8176C6.02176 9.72842 6.59723 8.77389 7.46035 8.24053V7.78983C5.78824 7.78983 4.43262 9.14538 4.43262 10.8176C4.43262 12.4897 5.78816 13.8453 7.46035 13.8453V13.3947C6.59723 12.8613 6.02176 11.9068 6.02176 10.8176ZM7.97106 7.11975H8.87606C8.94312 7.11975 9.00953 7.13296 9.07149 7.15863C9.13345 7.18429 9.18975 7.22191 9.23718 7.26933C9.2846 7.31676 9.32222 7.37305 9.34788 7.43502C9.37355 7.49698 9.38676 7.56339 9.38676 7.63045V14.0048C9.38676 14.1403 9.33295 14.2702 9.23718 14.366C9.1414 14.4617 9.0115 14.5155 8.87606 14.5155H7.97106C7.83561 14.5155 7.70571 14.4617 7.60993 14.366C7.51416 14.2702 7.46035 14.1403 7.46035 14.0048V7.63045C7.46035 7.56339 7.47356 7.49698 7.49923 7.43502C7.52489 7.37305 7.56251 7.31676 7.60993 7.26933C7.65736 7.22191 7.71366 7.18429 7.77562 7.15863C7.83758 7.13296 7.90399 7.11975 7.97106 7.11975Z" fill="#D8DCE5"/>
<path id="Vector_20" d="M8.83107 14.0048V7.63045C8.83109 7.53651 8.85704 7.44439 8.90608 7.36426C8.95511 7.28412 9.02532 7.21909 9.10896 7.17631C9.03698 7.13918 8.95715 7.11979 8.87615 7.11975H7.97115C7.90409 7.11975 7.83768 7.13296 7.77571 7.15863C7.71375 7.18429 7.65745 7.22191 7.61003 7.26933C7.56261 7.31676 7.52499 7.37305 7.49932 7.43502C7.47366 7.49698 7.46045 7.56339 7.46045 7.63045V14.0048C7.46045 14.1403 7.51426 14.2702 7.61003 14.366C7.70581 14.4617 7.83571 14.5155 7.97115 14.5155H8.87615C8.95716 14.5155 9.03699 14.4961 9.10896 14.459C9.02532 14.4162 8.95511 14.3512 8.90608 14.271C8.85704 14.1909 8.83109 14.0988 8.83107 14.0048Z" fill="#C3C8D1"/>
<path id="Vector_21" d="M15.9357 18.822H15.1862C14.6511 18.822 14.2173 18.3882 14.2173 17.8531C14.2173 17.318 14.651 16.8842 15.1862 16.8842H15.9357C16.4708 16.8842 16.9046 17.3179 16.9046 17.8531C16.9046 18.3881 16.4708 18.822 15.9357 18.822Z" fill="#576574"/>
<path id="Vector_22" d="M15.8065 17.8531C15.8065 17.4686 16.031 17.1374 16.3556 16.9809C16.2247 16.9174 16.0812 16.8843 15.9357 16.8842H15.1862C14.6511 16.8842 14.2173 17.3179 14.2173 17.8531C14.2173 18.3881 14.651 18.822 15.1862 18.822H15.9357C16.0863 18.822 16.2284 18.7866 16.3556 18.7252C16.031 18.5687 15.8065 18.2375 15.8065 17.8531Z" fill="#3E4B5A"/>
<path id="Vector_23" d="M22.5402 7.11975H21.7021C21.4165 7.11975 21.1851 7.34842 21.1851 7.63045V14.0048C21.1851 14.2869 21.4165 14.5155 21.7021 14.5155H22.5402C22.8258 14.5155 23.0572 14.2869 23.0572 14.0048V7.63045C23.0572 7.34834 22.8258 7.11975 22.5402 7.11975Z" fill="#D8DCE5"/>
<path id="Vector_24" d="M22.4775 14.0048V7.63045C22.4775 7.42905 22.5958 7.2553 22.7674 7.17217C22.6966 7.13769 22.6189 7.11976 22.5402 7.11975H21.624C21.3384 7.11975 21.1069 7.34842 21.1069 7.63045V14.0048C21.1069 14.2869 21.3384 14.5155 21.624 14.5155H22.5402C22.6189 14.5155 22.6966 14.4975 22.7674 14.463C22.5958 14.3799 22.4775 14.2062 22.4775 14.0048Z" fill="#C3C8D1"/>
</g>
</svg>
